<?xml version="1.0" encoding="utf-8"?>
<!-- Generator: Adobe Illustrator 18.1.1, SVG Export Plug-In . SVG Version: 6.00 Build 0)  -->
<svg xmlns="http://www.w3.org/2000/svg" xmlns:xlink="http://www.w3.org/1999/xlink" version="1.1" id="Layer_1" x="0px" y="0px" viewBox="0 0 50 50" enable-background="new 0 0 50 50" xml:space="preserve" width="20px" height="20px">
<path fill="none" stroke="#000000" stroke-width="2" stroke-linejoin="round" stroke-miterlimit="10" d="M47,35L35,47H5  c-1.1,0-2-0.9-2-2V4l3,3l3-3l4,3l4-3l4,3l4-3l4,3l4-3l4,3l4.1-3l3,3L47,4V35z"/>
<rect x="9" y="13" fill="none" stroke="#000000" stroke-width="2" stroke-miterlimit="10" width="32" height="4"/>
<line fill="none" stroke="#000000" stroke-width="2" stroke-miterlimit="10" x1="27" y1="23" x2="42" y2="23"/>
<line fill="none" stroke="#000000" stroke-width="2" stroke-miterlimit="10" x1="27" y1="27" x2="42" y2="27"/>
<line fill="none" stroke="#000000" stroke-width="2" stroke-miterlimit="10" x1="27" y1="31" x2="42" y2="31"/>
<line fill="none" stroke="#000000" stroke-width="2" stroke-miterlimit="10" x1="8" y1="39" x2="23" y2="39"/>
<line fill="none" stroke="#000000" stroke-width="2" stroke-miterlimit="10" x1="27" y1="35" x2="33" y2="35"/>
<line fill="none" stroke="#000000" stroke-width="2" stroke-miterlimit="10" x1="27" y1="39" x2="33" y2="39"/>
<g>
	<polygon points="14.3,30.7 15.5,29.5 15.5,27.2 19,27.2 17.8,26 14.3,26 13.2,27.2 14.3,27.2  "/>
	<polygon points="12,27.2 12,30.7 13.2,31.8 17.8,31.8 19,30.7 19,29.5 19,28.3 17.8,28.3 16.7,28.3 15.5,29.5 17.8,29.5 17.8,30.7    14.3,30.7 13.2,30.7 13.2,27.2 13.2,26  "/>
</g>
<rect x="9" y="23" fill="none" stroke="#000000" stroke-width="2" stroke-miterlimit="10" width="13" height="12"/>
<polyline fill="none" stroke="#000000" stroke-width="2" stroke-miterlimit="10" points="35,47 35,35 47,35 "/>
</svg>
