<?xml version="1.0" encoding="iso-8859-1"?>
<!-- Generator: Adobe Illustrator 19.0.0, SVG Export Plug-In . SVG Version: 6.00 Build 0)  -->
<svg xmlns="http://www.w3.org/2000/svg" xmlns:xlink="http://www.w3.org/1999/xlink" version="1.1" id="Capa_1" x="0px" y="0px" viewBox="0 886 20 20" style="enable-background:new 0 886 20 20;" xml:space="preserve" width="16px" height="16px">
<g>
<g>
<g>
<path d="M.227 900.074c0-.17.065-.32.196-.45l9.126-9.127c.13-.13.28-.196.45-.196.17 0 .32.066.45.197l9.127 9.126c.13.13.196.28.196.45s-.065.32-.196.45l-.98.98c-.13.13-.28.195-.45.195-.17 0-.32-.065-.45-.195L10 893.806l-7.697 7.697c-.13.13-.28.195-.45.195-.17 0-.32-.065-.45-.195l-.98-.98c-.13-.13-.196-.28-.196-.45z" fill="#818181"/>
<rect x="192" y="277.333" width="42.667" height="42.667" fill="#818181"/>
<rect x="192" y="106.667" width="42.667" height="128" fill="#818181"/>
		</g>
	</g>
</g>

</svg>
