<svg xmlns="http://www.w3.org/2000/svg" xmlns:xlink="http://www.w3.org/1999/xlink" viewBox="0 0 24 24" version="1.1" width="20" height="20" style="fill: rgb(221, 221, 221);">
<g id="surface1">
<path style=" " d="M 20 2 L 4 2 C 2.898438 2 2 2.898438 2 4 L 2 20 C 2 21.101563 2.898438 22 4 22 L 20 22 C 21.101563 22 22 21.101563 22 20 L 22 4 C 22 2.898438 21.101563 2 20 2 Z M 12 6 C 13.699219 6 15 7.300781 15 9 C 15 10.699219 13.699219 12 12 12 C 10.300781 12 9 10.699219 9 9 C 9 7.300781 10.300781 6 12 6 Z M 18 18 L 6 18 L 6 16.699219 C 6 16.199219 6.199219 15.800781 6.601563 15.5 C 7.398438 14.898438 9.101563 14 12 14 C 14.898438 14 16.601563 14.898438 17.398438 15.398438 C 17.800781 15.699219 18 16.101563 18 16.601563 Z "/>
</g>
</svg>
