<svg xmlns="http://www.w3.org/2000/svg" xmlns:xlink="http://www.w3.org/1999/xlink" version="1.1" width="21" height="21" style="display: block;"><rect id="backgroundrect" width="100%" height="100%" x="0" y="0" fill="none" stroke="none" class="" style=""/><g class="currentLayer" style=""><title>Layer 1</title><g id="svgg" class=""><path id="path0" d="M184.39800930023193,49.68099801635742 C46.69200930023193,65.82599801635742 -6.974990699768066,211.35299801635742 94.89800930023193,292.3759980163574 C100.39800930023193,296.7499980163574 105.01400930023193,300.4269980163574 105.15600930023193,300.54599801635743 C107.90000930023193,302.8509980163574 94.96500930023193,333.4839980163574 84.97800930023193,348.3299980163574 L78.41900930023193,358.0799980163574 L87.65900930023193,358.0759980163574 C115.44900930023194,358.0639980163574 138.75900930023192,348.8719980163574 158.89800930023193,329.9859980163574 L163.89800930023193,325.2969980163574 L170.39800930023193,326.65599801635744 C297.51100930023193,353.23099801635743 406.97500930023193,232.55699801635743 349.62100930023195,129.07999801635742 C319.72400930023196,75.14099801635743 250.59300930023193,41.919998016357425 184.39800930023193,49.68099801635742 M228.89800930023193,65.02499801635742 C339.52700930023195,81.49599801635742 389.14000930023195,194.09699801635742 318.5690093002319,268.5429980163574 C281.6150093002319,307.52599801635745 226.57000930023193,323.4669980163574 168.60500930023193,311.9699980163574 L158.31200930023192,309.9289980163574 L151.71700930023192,317.05299801635744 C140.80900930023193,328.83399801635744 129.82600930023193,335.7289980163574 114.45900930023194,340.44499801635743 C104.60500930023193,343.4679980163574 104.64300930023194,343.4799980163574 107.30300930023193,338.2649980163574 C113.39000930023194,326.33399801635744 117.72700930023193,311.89899801635744 118.82600930023193,299.9129980163574 L119.43700930023192,293.2449980163574 L111.16700930023194,287.4379980163574 C-6.235990699768067,204.98999801635742 79.61700930023193,42.79899801635742 228.89800930023193,65.02499801635742 M139.16000930023193,134.02199801635743 C92.76200930023194,148.85399801635742 105.93900930023193,222.74299801635743 153.62400930023193,215.12399801635743 C160.17000930023192,214.0779980163574 160.03500930023193,213.89799801635743 157.05400930023194,219.73099801635743 C153.70200930023194,226.28899801635743 148.21400930023194,232.4649980163574 143.93100930023192,234.49699801635742 C139.37900930023193,236.65699801635742 139.37100930023195,236.6259980163574 146.20600930023193,243.38999801635742 L152.01400930023195,249.13799801635741 L159.10000930023193,245.59299801635743 C189.39500930023195,230.43699801635742 204.14200930023193,174.4169980163574 184.63800930023194,148.57999801635742 C174.34500930023194,134.94499801635743 155.32200930023194,128.85499801635743 139.16000930023193,134.02199801635743 M241.39800930023193,135.89399801635741 C194.78500930023193,148.0779980163574 201.41200930023194,217.86699801635743 249.14800930023193,217.50199801635742 C254.78500930023193,217.4579980163574 259.39800930023193,217.7259980163574 259.39800930023193,218.0959980163574 C259.39800930023193,221.92499801635742 246.71900930023193,236.24699801635742 241.61000930023192,238.18899801635743 L239.04500930023192,239.16499801635743 L244.94000930023194,245.12199801635742 C251.65200930023195,251.9049980163574 251.77300930023193,251.93699801635742 258.2400093002319,248.65999801635743 C291.4370093002319,231.83799801635743 305.04900930023194,172.68099801635742 281.46300930023193,147.74199801635743 C270.67200930023193,136.33199801635743 256.1510093002319,132.03799801635742 241.39800930023193,135.89399801635741 " stroke="none" fill="#818181" fill-rule="evenodd"/></g></g></svg>
