<svg xmlns="http://www.w3.org/2000/svg" xmlns:xlink="http://www.w3.org/1999/xlink" viewBox="0 0 50 50" version="1.1" width="20" height="20" style="fill: rgb(255, 255, 255);">
<g id="surface1">
<path style=" " d="M 2.875 3 C 2.371094 3.0625 1.996094 3.492188 2 4 L 2 45 C 2 46.644531 3.355469 48 5 48 L 35 48 C 35.265625 48.007813 35.527344 47.90625 35.71875 47.71875 L 47.71875 35.71875 C 47.90625 35.527344 48.007813 35.265625 48 35 L 48 4 C 47.996094 3.59375 47.75 3.230469 47.371094 3.078125 C 46.996094 2.929688 46.5625 3.019531 46.28125 3.3125 L 44.09375 5.5625 L 41.8125 3.28125 C 41.460938 2.925781 40.898438 2.886719 40.5 3.1875 L 37 5.75 L 33.59375 3.1875 C 33.242188 2.925781 32.757813 2.925781 32.40625 3.1875 L 29 5.75 L 25.59375 3.1875 C 25.242188 2.925781 24.757813 2.925781 24.40625 3.1875 L 21 5.75 L 17.59375 3.1875 C 17.242188 2.925781 16.757813 2.925781 16.40625 3.1875 L 13 5.75 L 9.59375 3.1875 C 9.195313 2.886719 8.632813 2.925781 8.28125 3.28125 L 6 5.5625 L 3.71875 3.28125 C 3.496094 3.0625 3.183594 2.957031 2.875 3 Z M 17 5.25 L 20.40625 7.8125 C 20.757813 8.074219 21.242188 8.074219 21.59375 7.8125 L 25 5.25 L 28.40625 7.8125 C 28.757813 8.074219 29.242188 8.074219 29.59375 7.8125 L 33 5.25 L 36.40625 7.8125 C 36.757813 8.074219 37.242188 8.074219 37.59375 7.8125 L 41 5.3125 L 43.40625 7.71875 C 43.804688 8.09375 44.429688 8.082031 44.8125 7.6875 L 46 6.46875 L 46 34 L 34 34 L 34 46 L 5 46 C 4.445313 46 4 45.554688 4 45 L 4 6.4375 L 5.28125 7.71875 C 5.46875 7.914063 5.730469 8.023438 6 8.023438 C 6.269531 8.023438 6.53125 7.914063 6.71875 7.71875 L 9.09375 5.34375 L 12.40625 7.8125 C 12.757813 8.074219 13.242188 8.074219 13.59375 7.8125 Z M 8 12 L 8 18 L 42 18 L 42 12 Z M 10 14 L 40 14 L 40 16 L 10 16 Z M 8 22 L 8 36 L 23 36 L 23 22 Z M 27 22 L 27 24 L 42 24 L 42 22 Z M 10 24 L 21 24 L 21 34 L 10 34 Z M 13.1875 26 L 12 27.1875 L 12 30.6875 L 13.1875 31.8125 L 17.8125 31.8125 L 19 30.6875 L 19 28.3125 L 16.6875 28.3125 L 15.5 29.5 L 17.8125 29.5 L 17.8125 30.6875 L 13.1875 30.6875 Z M 13.1875 27.1875 L 14.3125 27.1875 L 14.3125 30.6875 L 15.5 29.5 L 15.5 27.1875 L 19 27.1875 L 17.8125 26 L 14.3125 26 Z M 27 26 L 27 28 L 42 28 L 42 26 Z M 27 30 L 27 32 L 42 32 L 42 30 Z M 27 34 L 27 36 L 33 36 L 33 34 Z M 36 36 L 44.5625 36 L 36 44.5625 Z M 8 38 L 8 40 L 23 40 L 23 38 Z M 27 38 L 27 40 L 33 40 L 33 38 Z "/>
</g>
</svg>
